<?xml version="1.0" encoding="utf-8"?>
<!-- Generator: Adobe Illustrator 16.0.3, SVG Export Plug-In . SVG Version: 6.00 Build 0)  -->
<!DOCTYPE svg PUBLIC "-//W3C//DTD SVG 1.1//EN" "http://www.w3.org/Graphics/SVG/1.1/DTD/svg11.dtd">
<svg version="1.1" id="Capa_1" xmlns="http://www.w3.org/2000/svg" xmlns:xlink="http://www.w3.org/1999/xlink" x="0px" y="0px"
	 width="841.406px" height="216.406px" viewBox="0 0 841.406 216.406" enable-background="new 0 0 841.406 216.406"
	 xml:space="preserve">
<g>
	<path fill="#FFFFFF" d="M740.021,20.305c-24.185,0-45.146,8.683-62.345,25.794c-17.116,17.242-25.78,38.206-25.78,62.327
		c0,24.181,8.688,45.146,25.78,62.327c17.188,17.111,38.16,25.783,62.345,25.783c24.129,0,45.122-8.712,62.405-25.931
		c0.791-0.809,1.536-1.583,2.233-2.34v28.271h23.465V20.305H740.021z M804.66,43.835v64.59c0,17.785-6.372,33.178-18.949,45.761
		c-12.707,12.713-27.662,18.89-45.689,18.89c-18.026,0-33.004-6.177-45.771-18.89c-12.541-12.536-18.9-27.939-18.9-45.761
		c0-18.033,6.182-32.993,18.9-45.707c12.579-12.571,27.982-18.943,45.771-18.943c11.763,0,23.087,0.012,34.342,0.03
		C784.447,43.812,794.447,43.823,804.66,43.835z"/>
	<polygon fill="#FFFFFF" points="238.14,19.437 214.687,19.437 214.687,196.536 339.992,196.536 339.992,173.076 238.14,173.076 	
		"/>
	<path fill="#FFFFFF" d="M557.468,20.305c-24.067,0-48.313,13.003-59.579,31.444c-2.494-3.628-5.437-7.122-8.889-10.585
		c-13.844-13.843-30.782-20.859-50.347-20.859c-19.52,0-36.442,7.016-50.284,20.859c-13.836,13.842-20.858,30.758-20.858,50.287
		v105.085h23.464V91.451c0-13.264,4.581-24.274,14.025-33.65c9.446-9.444,20.448-14.037,33.652-14.037
		c13.311,0,24.339,4.593,33.715,14.037l0.887,0.893l0.519,0.525l2.648,3.109l0.331,0.426l1.017,1.354l0.474,0.644l0.224,0.33
		l0.344,0.568l0.295,0.373l0.414,0.68l0.259,0.431l0.936,1.566l0.247,0.456l0.887,1.749l0.166,0.325l1.986,4.9l0.247,0.874
		l1.253,5.113l-0.047,0.166l0.626,3.699l0.072,0.633v0.869l0.059,0.194l0.071,0.526l0.047,108.33h23.465V90.475l0.06-0.956
		l-0.024-0.448l0.083-0.864v-0.313l0.059-0.657l0.19-1.967l0.059-0.498l0.662-3.853l0.178-0.77l0.33-1.394l0.035,0.011l1.597-4.9
		l0.296-0.714l0.757-1.69l0.247-0.563l1.088-2.097l0.023-0.006l0.367-0.691l0.378-0.674l1.772-2.678l0.427-0.668l0.389-0.508
		l5.072-5.798c9.186-9.297,20.497-14.014,33.631-14.014c13.253,0,24.281,4.593,33.727,14.037c9.267,9.263,13.96,20.582,13.96,33.65
		v105.085h23.465V91.451c0-19.576-7.009-36.492-20.805-50.287C593.983,27.321,577.044,20.305,557.468,20.305"/>
	<path fill="#FFFFFF" d="M38.841,46.099c-17.111,17.17-25.794,38.147-25.794,62.327c0,24.181,8.683,45.146,25.8,62.327
		c17.17,17.111,38.135,25.783,62.315,25.783c24.162,0,45.132-8.712,62.333-25.901c0.809-0.827,1.583-1.612,2.321-2.4v28.302h23.455
		V20.305h-88.109C76.917,20.305,55.946,28.988,38.841,46.099 M101.163,173.076c-17.827,0-33.217-6.354-45.76-18.89
		c-12.542-12.536-18.89-27.939-18.89-45.761c0-18.033,6.182-32.981,18.89-45.7c12.589-12.577,27.975-18.961,45.76-18.961
		c11.768,0,23.104,0.023,34.358,0.042c10.072,0.011,20.079,0.017,30.297,0.029v64.59c0,17.785-6.371,33.178-18.955,45.761
		C134.144,166.899,119.201,173.076,101.163,173.076z"/>
</g>
</svg>
